<svg width="24" height="24" viewBox="0 0 24 24" fill="none" xmlns="http://www.w3.org/2000/svg">
<path d="M11.732 6.07789C11.8121 6.02702 11.9051 6 12 6C12.0949 6 12.1879 6.02702 12.268 6.07789L17.074 9.13589C17.4805 9.39481 17.7799 9.79182 17.917 10.2539L12 13.4319L6.086 10.2439C6.22448 9.78598 6.5225 9.39288 6.926 9.13589L11.732 6.07789ZM6 11.3339V15.9999C6 16.5303 6.21071 17.039 6.58579 17.4141C6.96086 17.7892 7.46957 17.9999 8 17.9999H16C16.5304 17.9999 17.0391 17.7892 17.4142 17.4141C17.7893 17.039 18 16.5303 18 15.9999V11.3439L12.237 14.4399C12.1642 14.4791 12.0827 14.4996 12 14.4996C11.9173 14.4996 11.8358 14.4791 11.763 14.4399L6 11.3339Z" fill="#E1E5E8"/>
</svg>
