<svg width="24" height="24" viewBox="0 0 24 24" fill="none" xmlns="http://www.w3.org/2000/svg">
<path d="M21.1429 6.85716H8.57146M6.28575 6.85716H2.85718M21.1429 18.2857H8.57146M6.28575 18.2857H2.85718M15.4286 12.5714H2.85718M21.1429 12.5714H17.7143M7.42861 4.57144C7.73171 4.57144 8.0224 4.69185 8.23673 4.90618C8.45106 5.1205 8.57146 5.41119 8.57146 5.7143V8.00001C8.57146 8.30312 8.45106 8.59381 8.23673 8.80814C8.0224 9.02246 7.73171 9.14287 7.42861 9.14287C7.1255 9.14287 6.83481 9.02246 6.62049 8.80814C6.40616 8.59381 6.28575 8.30312 6.28575 8.00001V5.7143C6.28575 5.41119 6.40616 5.1205 6.62049 4.90618C6.83481 4.69185 7.1255 4.57144 7.42861 4.57144ZM7.42861 16C7.73171 16 8.0224 16.1204 8.23673 16.3347C8.45106 16.5491 8.57146 16.8398 8.57146 17.1429V19.4286C8.57146 19.7317 8.45106 20.0224 8.23673 20.2367C8.0224 20.451 7.73171 20.5714 7.42861 20.5714C7.1255 20.5714 6.83481 20.451 6.62049 20.2367C6.40616 20.0224 6.28575 19.7317 6.28575 19.4286V17.1429C6.28575 16.8398 6.40616 16.5491 6.62049 16.3347C6.83481 16.1204 7.1255 16 7.42861 16ZM16.5715 10.2857C16.8746 10.2857 17.1653 10.4061 17.3796 10.6205C17.5939 10.8348 17.7143 11.1255 17.7143 11.4286V13.7143C17.7143 14.0174 17.5939 14.3081 17.3796 14.5224C17.1653 14.7367 16.8746 14.8572 16.5715 14.8572C16.2684 14.8572 15.9777 14.7367 15.7633 14.5224C15.549 14.3081 15.4286 14.0174 15.4286 13.7143V11.4286C15.4286 11.1255 15.549 10.8348 15.7633 10.6205C15.9777 10.4061 16.2684 10.2857 16.5715 10.2857Z" stroke="#050506" stroke-width="1.25" stroke-linecap="round" stroke-linejoin="round"/>
</svg>
