<svg width="24" height="24" viewBox="0 0 24 24" fill="none" xmlns="http://www.w3.org/2000/svg">
<path fill-rule="evenodd" clip-rule="evenodd" d="M10.0636 6.3318C10.1134 6.23215 10.1899 6.14833 10.2847 6.08973C10.3794 6.03113 10.4886 6.00006 10.6 6H14.2C14.3114 6.00006 14.4206 6.03113 14.5153 6.08973C14.6101 6.14833 14.6866 6.23215 14.7364 6.3318L15.7708 8.4H17.2C17.3591 8.4 17.5117 8.46321 17.6243 8.57574C17.7368 8.68826 17.8 8.84087 17.8 9C17.8 9.15913 17.7368 9.31174 17.6243 9.42426C17.5117 9.53679 17.3591 9.6 17.2 9.6H16.6V16.2C16.6 16.6774 16.4104 17.1352 16.0728 17.4728C15.7352 17.8104 15.2774 18 14.8 18H10C9.52261 18 9.06477 17.8104 8.72721 17.4728C8.38964 17.1352 8.2 16.6774 8.2 16.2V9.6H7.6C7.44087 9.6 7.28826 9.53679 7.17574 9.42426C7.06321 9.31174 7 9.15913 7 9C7 8.84087 7.06321 8.68826 7.17574 8.57574C7.28826 8.46321 7.44087 8.4 7.6 8.4H9.0292L10.0636 6.3318ZM13.8292 7.2L14.4292 8.4H10.3708L10.9708 7.2H13.8292ZM11.8 11.4C11.8 11.2409 11.7368 11.0883 11.6243 10.9757C11.5117 10.8632 11.3591 10.8 11.2 10.8C11.0409 10.8 10.8883 10.8632 10.7757 10.9757C10.6632 11.0883 10.6 11.2409 10.6 11.4V15C10.6 15.1591 10.6632 15.3117 10.7757 15.4243C10.8883 15.5368 11.0409 15.6 11.2 15.6C11.3591 15.6 11.5117 15.5368 11.6243 15.4243C11.7368 15.3117 11.8 15.1591 11.8 15V11.4ZM14.2 11.4C14.2 11.2409 14.1368 11.0883 14.0243 10.9757C13.9117 10.8632 13.7591 10.8 13.6 10.8C13.4409 10.8 13.2883 10.8632 13.1757 10.9757C13.0632 11.0883 13 11.2409 13 11.4V15C13 15.1591 13.0632 15.3117 13.1757 15.4243C13.2883 15.5368 13.4409 15.6 13.6 15.6C13.7591 15.6 13.9117 15.5368 14.0243 15.4243C14.1368 15.3117 14.2 15.1591 14.2 15V11.4Z" fill="white"/>
</svg>
