<svg width="32" height="32" viewBox="0 0 32 32" fill="none" xmlns="http://www.w3.org/2000/svg">
<path d="M19.7 20.0008V28.0008H12.3V20.0008C12.3 19.0608 13.06 18.3008 14 18.3008H18C18.94 18.3008 19.7 19.0608 19.7 20.0008Z" fill="#202546"/>
<path d="M27 15C27 15 19.05 5.4 18.99 5.35C18.3 4.53 17.16 4 16 4C14.84 4 13.7 4.53 13.01 5.35C12.95 5.4 5 15 5 15C4 16.14 4 17.11 4 17.49V26C4 27.1 4.9 28 6 28H11V20C11 18.35 12.35 17 14 17H18C19.65 17 21 18.35 21 20V28H26C27.1 28 28 27.1 28 26V17.49C28 17.11 28 16.14 27 15Z" fill="#202546"/>
</svg>
