<svg width="32" height="32" viewBox="0 0 32 32" fill="none" xmlns="http://www.w3.org/2000/svg">
<path d="M27 15C27 15 19.05 5.4 18.99 5.35C18.3 4.53 17.16 4 16 4C14.84 4 13.7 4.53 13.01 5.35C12.95 5.4 5 15 5 15C4 16.14 4 17.11 4 17.49V26C4 27.1 4.9 28 6 28H26C27.1 28 28 27.1 28 26V17.49C28 17.11 28 16.14 27 15ZM12.3 26.7V20C12.3 19.06 13.06 18.3 14 18.3H18C18.94 18.3 19.7 19.06 19.7 20V26.7H12.3ZM26.7 26C26.7 26.38 26.38 26.7 26 26.7H21V20C21 18.35 19.65 17 18 17H14C12.35 17 11 18.35 11 20V26.7H6C5.62 26.7 5.3 26.38 5.3 26V17.49C5.3 17.21 5.3 16.63 5.98 15.86C8.95 12.27 13.35 6.96 13.93 6.28L14 6.19C14.46 5.65 15.24 5.3 16 5.3C16.76 5.3 17.54 5.65 18 6.19L18.07 6.28C18.65 6.96 23.05 12.27 26 15.83C26.7 16.63 26.7 17.21 26.7 17.49V26Z" fill="#202546"/>
</svg>
