<svg width="25" height="24" viewBox="0 0 25 24" fill="none" xmlns="http://www.w3.org/2000/svg">
<path d="M12.8999 12C15.6613 12 17.8999 9.76142 17.8999 7C17.8999 4.23858 15.6613 2 12.8999 2C10.1385 2 7.8999 4.23858 7.8999 7C7.8999 9.76142 10.1385 12 12.8999 12Z" fill="#FF5848" stroke="#FF5848" stroke-width="1.5" stroke-linecap="round" stroke-linejoin="round"/>
<mask id="path-2-inside-1_1004_34088" fill="white">
<path d="M21.4901 22C21.4901 18.13 17.6401 15 12.9001 15C8.16006 15 4.31006 18.13 4.31006 22"/>
</mask>
<path d="M21.4901 22C21.4901 18.13 17.6401 15 12.9001 15C8.16006 15 4.31006 18.13 4.31006 22" fill="#FF5848"/>
<path d="M19.9901 22C19.9901 22.8284 20.6616 23.5 21.4901 23.5C22.3185 23.5 22.9901 22.8284 22.9901 22H19.9901ZM2.81006 22C2.81006 22.8284 3.48163 23.5 4.31006 23.5C5.13849 23.5 5.81006 22.8284 5.81006 22H2.81006ZM22.9901 22C22.9901 17.0283 18.1658 13.5 12.9001 13.5V16.5C17.1143 16.5 19.9901 19.2317 19.9901 22H22.9901ZM12.9001 13.5C7.63431 13.5 2.81006 17.0283 2.81006 22H5.81006C5.81006 19.2317 8.6858 16.5 12.9001 16.5V13.5Z" fill="#FF5848" mask="url(#path-2-inside-1_1004_34088)"/>
</svg>
