<svg width="32" height="32" viewBox="0 0 32 24" fill="none" xmlns="http://www.w3.org/2000/svg">
<path d="M4.20733 12.0604C4.10032 11.8909 4.04682 11.8062 4.01687 11.6755C3.99438 11.5774 3.99438 11.4226 4.01687 11.3245C4.04682 11.1938 4.10032 11.1091 4.20733 10.9396C5.09158 9.53952 7.72362 6 11.7347 6C15.7458 6 18.3778 9.53952 19.2621 10.9396C19.3691 11.1091 19.4226 11.1938 19.4525 11.3245C19.475 11.4226 19.475 11.5774 19.4525 11.6755C19.4226 11.8062 19.3691 11.8909 19.2621 12.0604C18.3778 13.4605 15.7458 17 11.7347 17C7.72362 17 5.09158 13.4605 4.20733 12.0604Z" stroke="#808080" stroke-linecap="round" stroke-linejoin="round"/>
<path d="M11.7347 13.8571C13.0365 13.8571 14.0918 12.8018 14.0918 11.5C14.0918 10.1982 13.0365 9.14286 11.7347 9.14286C10.4329 9.14286 9.37755 10.1982 9.37755 11.5C9.37755 12.8018 10.4329 13.8571 11.7347 13.8571Z" stroke="#808080" stroke-linecap="round" stroke-linejoin="round"/>
</svg>
