<svg width="32" height="32" viewBox="0 0 32 24" fill="none" xmlns="http://www.w3.org/2000/svg">
<path d="M11.2015 6.51112C11.495 6.46772 11.7978 6.44444 12.1097 6.44444C15.7966 6.44444 18.216 9.69794 19.0288 10.9849C19.1271 11.1407 19.1763 11.2186 19.2039 11.3387C19.2245 11.4289 19.2245 11.5713 19.2038 11.6615C19.1763 11.7816 19.1267 11.86 19.0277 12.0168C18.8111 12.3596 18.4809 12.8412 18.0435 13.3637M8.29916 7.68308C6.73767 8.74234 5.67759 10.214 5.19128 10.9838C5.09247 11.1402 5.04306 11.2185 5.01552 11.3386C4.99483 11.4288 4.99483 11.5711 5.0155 11.6613C5.04303 11.7814 5.09221 11.8593 5.19058 12.0151C6.00338 13.3021 8.42273 16.5556 12.1097 16.5556C13.5963 16.5556 14.8768 16.0266 15.9291 15.3109M5.60968 5L18.6097 18M10.5776 9.96793C10.1855 10.36 9.94301 10.9017 9.94301 11.5C9.94301 12.6966 10.9131 13.6667 12.1097 13.6667C12.708 13.6667 13.2497 13.4242 13.6417 13.0321" stroke="#808080" stroke-linecap="round" stroke-linejoin="round"/>
</svg>
