<svg width="24" height="24" viewBox="0 0 24 24" fill="none" xmlns="http://www.w3.org/2000/svg">
<path d="M15.6667 10.6667V9.33333C15.6667 7.49238 14.1743 6 12.3333 6C10.4924 6 9 7.49238 9 9.33333V10.6667M12.3333 13.6667V15M10.2 18H14.4667C15.5868 18 16.1468 18 16.5746 17.782C16.951 17.5903 17.2569 17.2843 17.4487 16.908C17.6667 16.4802 17.6667 15.9201 17.6667 14.8V13.8667C17.6667 12.7466 17.6667 12.1865 17.4487 11.7587C17.2569 11.3824 16.951 11.0764 16.5746 10.8847C16.1468 10.6667 15.5868 10.6667 14.4667 10.6667H10.2C9.07989 10.6667 8.51984 10.6667 8.09202 10.8847C7.71569 11.0764 7.40973 11.3824 7.21799 11.7587C7 12.1865 7 12.7466 7 13.8667V14.8C7 15.9201 7 16.4802 7.21799 16.908C7.40973 17.2843 7.71569 17.5903 8.09202 17.782C8.51984 18 9.07989 18 10.2 18Z" stroke="#FC532B" stroke-linecap="round" stroke-linejoin="round"/>
</svg>
